<?xml version="1.0" encoding="utf-8"?>
<!-- Generator: Circuit Diagram, cdlibrary.dll 1.0.0.0 -->
<!DOCTYPE svg PUBLIC "-//W3C//DTD SVG 1.1//EN" "http://www.w3.org/Graphics/SVG/1.1/DTD/svg11.dtd">
<svg version="1.1" width="520" height="340" xmlns="http://www.w3.org/2000/svg">
	<line x1="400" y1="170" x2="416" y2="170" style="stroke:rgb(0, 0, 0);stroke-linecap:square;stroke-width:2" />
	<line x1="400" y1="160" x2="400" y2="170" style="stroke:rgb(0, 0, 0);stroke-linecap:square;stroke-width:2" />
	<line x1="210" y1="160" x2="400" y2="160" style="stroke:rgb(0, 0, 0);stroke-linecap:square;stroke-width:2" />
	<line x1="260" y1="240" x2="260" y2="250" style="stroke:rgb(0, 0, 0);stroke-linecap:square;stroke-width:2" />
	<line x1="260" y1="290" x2="260" y2="300" style="stroke:rgb(0, 0, 0);stroke-linecap:square;stroke-width:2" />
	<rect x="252" y="250" width="16" height="40" style="fill-opacity:0;stroke:rgb(0, 0, 0);stroke-width:2" />
	<text x="246" y="270" style="font-family:Arial;font-size:11px;text-anchor:end" dy=".3em">10 kΩ</text>
	<line x1="210" y1="240" x2="300" y2="240" style="stroke:rgb(0, 0, 0);stroke-linecap:square;stroke-width:2" />
	<line x1="280" y1="250" x2="280" y2="300" style="stroke:rgb(0, 0, 0);stroke-linecap:square;stroke-width:2" />
	<line x1="280" y1="250" x2="300" y2="250" style="stroke:rgb(0, 0, 0);stroke-linecap:square;stroke-width:2" />
	<text x="360" y="220" style="font-family:Arial;font-size:11px;text-anchor:middle" dy=".3em">TV USB (spliced)</text>
	<rect x="310" y="230" width="100" height="50" style="fill-opacity:0;stroke:rgb(0, 0, 0);stroke-width:2" />
	<line x1="300" y1="240" x2="310" y2="240" style="stroke:rgb(0, 0, 0);stroke-linecap:square;stroke-width:2" />
	<text x="314" y="240" style="font-family:Arial;font-size:11px;text-anchor:start" dy=".3em">5V</text>
	<line x1="300" y1="250" x2="310" y2="250" style="stroke:rgb(0, 0, 0);stroke-linecap:square;stroke-width:2" />
	<text x="314" y="250" style="font-family:Arial;font-size:11px;text-anchor:start" dy=".3em">GND</text>
	<line x1="300" y1="260" x2="310" y2="260" style="stroke:rgb(0, 0, 0);stroke-linecap:square;stroke-width:2" />
	<text x="314" y="260" style="font-family:Arial;font-size:11px;text-anchor:start" dy=".3em">DATA+</text>
	<line x1="300" y1="270" x2="310" y2="270" style="stroke:rgb(0, 0, 0);stroke-linecap:square;stroke-width:2" />
	<text x="314" y="270" style="font-family:Arial;font-size:11px;text-anchor:start" dy=".3em">DATA-</text>
	<line x1="430" y1="40" x2="430" y2="157" style="stroke:rgb(0, 0, 0);stroke-linecap:square;stroke-width:2" />
	<line x1="430" y1="183" x2="430" y2="300" style="stroke:rgb(0, 0, 0);stroke-linecap:square;stroke-width:2" />
	<ellipse cx="430" cy="170" rx="12" ry="12" style="fill-opacity:0;fill:rgb(0, 0, 0);stroke:rgb(0, 0, 0);stroke-width:2" />
	<text x="430" y="170" style="font-family:Arial;font-size:12px;text-anchor:middle" dy=".3em">S</text>
	<text x="450" y="170" style="font-family:Arial;font-size:12px;text-anchor:left" dy=".3em">Button Motor</text>
	<line x1="60" y1="180" x2="60" y2="300" style="stroke:rgb(0, 0, 0);stroke-linecap:square;stroke-width:2" />
	<line x1="60" y1="180" x2="80" y2="180" style="stroke:rgb(0, 0, 0);stroke-linecap:square;stroke-width:2" />
	<line x1="60" y1="300" x2="430" y2="300" style="stroke:rgb(0, 0, 0);stroke-linecap:square;stroke-width:2" />
	<line x1="60" y1="300" x2="60" y2="308" style="stroke:rgb(0, 0, 0);stroke-linecap:square;stroke-width:2" />
	<path d="M 52,308 L 68,308 L 60,316 L 52,308" style="fill-opacity:0;fill:rgb(0, 0, 0);stroke:rgb(0, 0, 0);stroke-linecap:square;stroke-width:2" />
	<text x="55" y="40" style="font-family:Arial;font-size:12px;text-anchor:end" dy=".3em">+5V</text>
	<line x1="60" y1="40" x2="430" y2="40" style="stroke:rgb(0, 0, 0);stroke-linecap:square;stroke-width:2" />
	<line x1="60" y1="40" x2="60" y2="160" style="stroke:rgb(0, 0, 0);stroke-linecap:square;stroke-width:2" />
	<line x1="60" y1="160" x2="80" y2="160" style="stroke:rgb(0, 0, 0);stroke-linecap:square;stroke-width:2" />
	<rect x="85" y="75" width="120" height="195" style="fill-opacity:0;stroke:rgb(0, 0, 0);stroke-width:2" />
	<text x="121" y="105" style="font-family:Arial;font-size:11px;text-anchor:start" dy=".3em">ARDUINO</text>
	<text x="128" y="115" style="font-family:Arial;font-size:11px;text-anchor:start" dy=".3em">UNO r3</text>
	<line x1="80" y1="130" x2="85" y2="130" style="stroke:rgb(0, 0, 0);stroke-linecap:square;stroke-width:2" />
	<line x1="80" y1="140" x2="85" y2="140" style="stroke:rgb(0, 0, 0);stroke-linecap:square;stroke-width:2" />
	<line x1="80" y1="150" x2="85" y2="150" style="stroke:rgb(0, 0, 0);stroke-linecap:square;stroke-width:2" />
	<line x1="80" y1="160" x2="85" y2="160" style="stroke:rgb(0, 0, 0);stroke-linecap:square;stroke-width:2" />
	<line x1="80" y1="170" x2="85" y2="170" style="stroke:rgb(0, 0, 0);stroke-linecap:square;stroke-width:2" />
	<line x1="80" y1="180" x2="85" y2="180" style="stroke:rgb(0, 0, 0);stroke-linecap:square;stroke-width:2" />
	<line x1="80" y1="190" x2="85" y2="190" style="stroke:rgb(0, 0, 0);stroke-linecap:square;stroke-width:2" />
	<line x1="80" y1="210" x2="85" y2="210" style="stroke:rgb(0, 0, 0);stroke-linecap:square;stroke-width:2" />
	<line x1="80" y1="220" x2="85" y2="220" style="stroke:rgb(0, 0, 0);stroke-linecap:square;stroke-width:2" />
	<line x1="80" y1="230" x2="85" y2="230" style="stroke:rgb(0, 0, 0);stroke-linecap:square;stroke-width:2" />
	<line x1="80" y1="240" x2="85" y2="240" style="stroke:rgb(0, 0, 0);stroke-linecap:square;stroke-width:2" />
	<line x1="80" y1="250" x2="85" y2="250" style="stroke:rgb(0, 0, 0);stroke-linecap:square;stroke-width:2" />
	<line x1="80" y1="260" x2="85" y2="260" style="stroke:rgb(0, 0, 0);stroke-linecap:square;stroke-width:2" />
	<line x1="205" y1="100" x2="210" y2="100" style="stroke:rgb(0, 0, 0);stroke-linecap:square;stroke-width:2" />
	<line x1="205" y1="110" x2="210" y2="110" style="stroke:rgb(0, 0, 0);stroke-linecap:square;stroke-width:2" />
	<line x1="205" y1="120" x2="210" y2="120" style="stroke:rgb(0, 0, 0);stroke-linecap:square;stroke-width:2" />
	<line x1="205" y1="130" x2="210" y2="130" style="stroke:rgb(0, 0, 0);stroke-linecap:square;stroke-width:2" />
	<line x1="205" y1="140" x2="210" y2="140" style="stroke:rgb(0, 0, 0);stroke-linecap:square;stroke-width:2" />
	<line x1="205" y1="150" x2="210" y2="150" style="stroke:rgb(0, 0, 0);stroke-linecap:square;stroke-width:2" />
	<line x1="205" y1="160" x2="210" y2="160" style="stroke:rgb(0, 0, 0);stroke-linecap:square;stroke-width:2" />
	<line x1="205" y1="170" x2="210" y2="170" style="stroke:rgb(0, 0, 0);stroke-linecap:square;stroke-width:2" />
	<line x1="205" y1="190" x2="210" y2="190" style="stroke:rgb(0, 0, 0);stroke-linecap:square;stroke-width:2" />
	<line x1="205" y1="200" x2="210" y2="200" style="stroke:rgb(0, 0, 0);stroke-linecap:square;stroke-width:2" />
	<line x1="205" y1="210" x2="210" y2="210" style="stroke:rgb(0, 0, 0);stroke-linecap:square;stroke-width:2" />
	<line x1="205" y1="220" x2="210" y2="220" style="stroke:rgb(0, 0, 0);stroke-linecap:square;stroke-width:2" />
	<line x1="205" y1="230" x2="210" y2="230" style="stroke:rgb(0, 0, 0);stroke-linecap:square;stroke-width:2" />
	<line x1="205" y1="240" x2="210" y2="240" style="stroke:rgb(0, 0, 0);stroke-linecap:square;stroke-width:2" />
	<line x1="205" y1="250" x2="210" y2="250" style="stroke:rgb(0, 0, 0);stroke-linecap:square;stroke-width:2" />
	<line x1="205" y1="260" x2="210" y2="260" style="stroke:rgb(0, 0, 0);stroke-linecap:square;stroke-width:2" />
	<text x="89" y="130" style="font-family:Arial;font-size:11px;text-anchor:start" dy=".3em">IOREF</text>
	<text x="89" y="140" style="font-family:Arial;font-size:11px;text-anchor:start" dy=".3em">RESET</text>
	<text x="89" y="150" style="font-family:Arial;font-size:11px;text-anchor:start" dy=".3em">3.3V</text>
	<text x="89" y="160" style="font-family:Arial;font-size:11px;text-anchor:start" dy=".3em">5V</text>
	<text x="89" y="170" style="font-family:Arial;font-size:11px;text-anchor:start" dy=".3em">GND</text>
	<text x="89" y="180" style="font-family:Arial;font-size:11px;text-anchor:start" dy=".3em">GND</text>
	<text x="89" y="190" style="font-family:Arial;font-size:11px;text-anchor:start" dy=".3em">Vin</text>
	<text x="89" y="210" style="font-family:Arial;font-size:11px;text-anchor:start" dy=".3em">A0</text>
	<text x="89" y="220" style="font-family:Arial;font-size:11px;text-anchor:start" dy=".3em">A1</text>
	<text x="89" y="230" style="font-family:Arial;font-size:11px;text-anchor:start" dy=".3em">A2</text>
	<text x="89" y="240" style="font-family:Arial;font-size:11px;text-anchor:start" dy=".3em">A3</text>
	<text x="89" y="250" style="font-family:Arial;font-size:11px;text-anchor:start" dy=".3em">A4</text>
	<text x="89" y="260" style="font-family:Arial;font-size:11px;text-anchor:start" dy=".3em">A5</text>
	<text x="201" y="100" style="font-family:Arial;font-size:11px;text-anchor:end" dy=".3em">AREF</text>
	<text x="201" y="110" style="font-family:Arial;font-size:11px;text-anchor:end" dy=".3em">GND</text>
	<text x="201" y="120" style="font-family:Arial;font-size:11px;text-anchor:end" dy=".3em">D13</text>
	<text x="201" y="130" style="font-family:Arial;font-size:11px;text-anchor:end" dy=".3em">D12</text>
	<text x="201" y="140" style="font-family:Arial;font-size:11px;text-anchor:end" dy=".3em">PWM D11</text>
	<text x="201" y="150" style="font-family:Arial;font-size:11px;text-anchor:end" dy=".3em">PWM D10</text>
	<text x="201" y="160" style="font-family:Arial;font-size:11px;text-anchor:end" dy=".3em">PWM   D9</text>
	<text x="201" y="170" style="font-family:Arial;font-size:11px;text-anchor:end" dy=".3em">D8</text>
	<text x="201" y="190" style="font-family:Arial;font-size:11px;text-anchor:end" dy=".3em">D7</text>
	<text x="201" y="200" style="font-family:Arial;font-size:11px;text-anchor:end" dy=".3em">PWM   D6</text>
	<text x="201" y="210" style="font-family:Arial;font-size:11px;text-anchor:end" dy=".3em">PWM   D5</text>
	<text x="201" y="220" style="font-family:Arial;font-size:11px;text-anchor:end" dy=".3em">D4</text>
	<text x="201" y="230" style="font-family:Arial;font-size:11px;text-anchor:end" dy=".3em">PWM   D3</text>
	<text x="201" y="240" style="font-family:Arial;font-size:11px;text-anchor:end" dy=".3em">D2</text>
	<text x="201" y="250" style="font-family:Arial;font-size:11px;text-anchor:end" dy=".3em">TX   D1</text>
	<text x="201" y="260" style="font-family:Arial;font-size:11px;text-anchor:end" dy=".3em">RX   D0</text>
	<path d="M 145,90 M 145,90 c 2,9 15,9 15,0 c 0,-9 -13,-9 -15,0" style="fill-opacity:0;fill:rgb(0, 0, 0);stroke:rgb(0, 0, 0);stroke-linecap:square;stroke-width:2" />
	<path d="M 145,90 M 145,90 c -2,-9 -15,-9 -15,0 c 0,9 13,9 15,0" style="fill-opacity:0;fill:rgb(0, 0, 0);stroke:rgb(0, 0, 0);stroke-linecap:square;stroke-width:2" />
	<line x1="151" y1="90" x2="155" y2="90" style="stroke:rgb(0, 0, 0);stroke-linecap:square;stroke-width:2" />
	<line x1="153" y1="92" x2="153" y2="88" style="stroke:rgb(0, 0, 0);stroke-linecap:square;stroke-width:2" />
	<line x1="139" y1="90" x2="135" y2="90" style="stroke:rgb(0, 0, 0);stroke-linecap:square;stroke-width:2" />
	<ellipse cx="260" cy="240" rx="2" ry="2" style="fill-opacity:1;fill:rgb(0, 0, 0);stroke:rgb(0, 0, 0);stroke-width:2" />
	<ellipse cx="260" cy="300" rx="2" ry="2" style="fill-opacity:1;fill:rgb(0, 0, 0);stroke:rgb(0, 0, 0);stroke-width:2" />
	<ellipse cx="280" cy="300" rx="2" ry="2" style="fill-opacity:1;fill:rgb(0, 0, 0);stroke:rgb(0, 0, 0);stroke-width:2" />
</svg>