<svg height="300px" width="260px" fill="#d2dee7" xmlns="http://www.w3.org/2000/svg" xmlns:xlink="http://www.w3.org/1999/xlink" version="1.1" x="0px" y="0px" viewBox="0 0 48 48" enable-background="new 0 0 48 48" xml:space="preserve">
<g>
<path d="M24.2,33.4V10c0-0.6-0.4-1-1-1c-0.6,0-1,0.4-1,1v23.4c-2.2,0.5-3.9,2.4-3.9,4.8c0,2.7,2.2,4.9,4.9,4.9   c2.7,0,4.9-2.2,4.9-4.9C28,35.8,26.4,33.9,24.2,33.4z M23.2,41c-1.6,0-2.9-1.3-2.9-2.9s1.3-2.9,2.9-2.9c1.6,0,2.9,1.3,2.9,2.9   S24.7,41,23.2,41z"/>
<path d="M28,29.6V4.8C28,2.2,25.8,0,23.2,0s-4.8,2.2-4.8,4.8v24.8c-3.5,2-5.5,6-4.9,10c0.6,4.3,4.3,7.8,8.6,8.3   c0.4,0,0.8,0.1,1.1,0.1h0c2.6,0,5.1-1,7-2.9s2.9-4.3,2.9-7C33,34.6,31,31.3,28,29.6z M28.7,43.7c-1.7,1.7-4,2.5-6.4,2.2   c-3.5-0.4-6.3-3.2-6.8-6.6c-0.5-3.4,1.2-6.7,4.4-8.2c0.3-0.2,0.6-0.5,0.6-0.9V4.8c0-1.6,1.3-2.8,2.8-2.8C24.7,2,26,3.3,26,4.8v25.4   c0,0.4,0.2,0.7,0.6,0.9c2.7,1.3,4.4,4,4.4,7.1C31,40.3,30.2,42.2,28.7,43.7z"/>
<path d="M30,7.2h3.7c0.6,0,1-0.4,1-1s-0.4-1-1-1H30c-0.6,0-1,0.4-1,1S29.5,7.2,30,7.2z"/>
<path d="M33.7,9.5H30c-0.6,0-1,0.4-1,1s0.4,1,1,1h3.7c0.6,0,1-0.4,1-1S34.2,9.5,33.7,9.5z"/>
<path d="M33.7,13.8H30c-0.6,0-1,0.4-1,1s0.4,1,1,1h3.7c0.6,0,1-0.4,1-1S34.2,13.8,33.7,13.8z"/>
<path d="M33.7,18.2H30c-0.6,0-1,0.4-1,1s0.4,1,1,1h3.7c0.6,0,1-0.4,1-1S34.2,18.2,33.7,18.2z"/>
<path d="M33.7,22.5H30c-0.6,0-1,0.4-1,1s0.4,1,1,1h3.7c0.6,0,1-0.4,1-1S34.2,22.5,33.7,22.5z"/>
</g>
</svg>