<svg xmlns="http://www.w3.org/2000/svg" xmlns:xlink="http://www.w3.org/1999/xlink" width="290.4" height="150" viewBox="28 0 290.4 150"><title></title><style type="text/css">
#g1 circle.pindot {fill: none;stroke: none;}#g1 rect, #g1 circle, #g1 ellipse, #g1 polyline, #g1 line, #g1 polygon, #g1 path {shape-rendering: crispEdges;}path, polyline, polygon {stroke-linejoin:round;}
rect, circle, ellipse, polyline, line, polygon, path {shape-rendering:crispEdges;}
</style>
<rect x="28" y="0" width="290.4" height="150" fill="#FFFFFF" stroke="none"/><g id="g1" c_spiceCmd="null" c_para="Prefix Start`1`" importFlag="0" c_portOfADImportHack="" c_transformList="" xmlns="http://www.w3.org/2000/svg"><g c_origin="100,70" c_para="package`WEMOS_D1_MINI_SHOLE`BOM_Manufacturer``BOM_Manufacturer Part`WeMos D1 Mini Pro`BOM_Supplier Part`undefined`BOM_Supplier``link``Contributor`MiniMax`spicePre`U`" c_partid="part_import_gge2569" id="gge2569" c_shapetype="group" c_etype="pinpart" ><g c_partid="part_annotation" id="gge2571" display="none"><text c_note="note_name" x="99.03" y="7" fill="#000080" font-family="Arial" font-size="7pt" font-weight="" font-style="" dominant-baseline="" text-anchor="start"  >WEMOS_D1_mini</text></g><g c_partid="part_annotation" id="gge2573" display="none"><text c_note="note_pre" x="99.03" y="-2" fill="#000080" font-family="Arial" font-size="7pt" font-weight="" font-style="" dominant-baseline="" text-anchor="start"  >U1</text></g><g c_partid="part_pin" c_etype="pinpart"  c_show="show"  c_elec="0" c_spicepin="1" c_origin="170,40" id="gge2575" c_rotation="0"><circle c_pindot="true" class="pindot" cx="170" cy="40" r="2" fill="#4F4F4F" stroke="none" /><path d="M 170 40 h -20" fill="none" stroke="#880000" stroke-width="1"/><text x="148" y="43" font-family="Verdana" font-size="7pt" fill="#0000FF" text-anchor="end"   >TX</text><text x="155" y="39" font-family="Verdana" font-size="7pt" fill="#0000FF" text-anchor="start" display="none"  >TX</text><circle cx="153" cy="40" r="3" stroke="#880000" fill="none" stroke-width="1" display="none" /><path d="M 150 37 L 147 40 L 150 43" fill="none" stroke="#880000" stroke-width="1"  display="none" /></g><g c_partid="part_pin" c_etype="pinpart"  c_show="show"  c_elec="0" c_spicepin="2" c_origin="170,50" id="gge2582" c_rotation="0"><circle c_pindot="true" class="pindot" cx="170" cy="50" r="2" fill="#4F4F4F" stroke="none" /><path d="M 170 50 h -20" fill="none" stroke="#880000" stroke-width="1"/><text x="148" y="53" font-family="Verdana" font-size="7pt" fill="#0000FF" text-anchor="end"   >RX</text><text x="155" y="49" font-family="Verdana" font-size="7pt" fill="#0000FF" text-anchor="start" display="none"  >RX</text><circle cx="153" cy="50" r="3" stroke="#880000" fill="none" stroke-width="1" display="none" /><path d="M 150 47 L 147 50 L 150 53" fill="none" stroke="#880000" stroke-width="1"  display="none" /></g><g c_partid="part_pin" c_etype="pinpart"  c_show="show"  c_elec="0" c_spicepin="3" c_origin="170,60" id="gge2589" c_rotation="0"><circle c_pindot="true" class="pindot" cx="170" cy="60" r="2" fill="#4F4F4F" stroke="none" /><path d="M 170 60 h -20" fill="none" stroke="#880000" stroke-width="1"/><text x="148" y="63" font-family="Verdana" font-size="7pt" fill="#0000FF" text-anchor="end"   >D1</text><text x="155" y="59" font-family="Verdana" font-size="7pt" fill="#0000FF" text-anchor="start" display="none"  >D1</text><circle cx="153" cy="60" r="3" stroke="#880000" fill="none" stroke-width="1" display="none" /><path d="M 150 57 L 147 60 L 150 63" fill="none" stroke="#880000" stroke-width="1"  display="none" /></g><g c_partid="part_pin" c_etype="pinpart"  c_show="show"  c_elec="0" c_spicepin="4" c_origin="170,70" id="gge2596" c_rotation="0"><circle c_pindot="true" class="pindot" cx="170" cy="70" r="2" fill="#4F4F4F" stroke="none" /><path d="M 170 70 h -20" fill="none" stroke="#880000" stroke-width="1"/><text x="148" y="73" font-family="Verdana" font-size="7pt" fill="#0000FF" text-anchor="end"   >D2</text><text x="155" y="69" font-family="Verdana" font-size="7pt" fill="#0000FF" text-anchor="start" display="none"  >D2</text><circle cx="153" cy="70" r="3" stroke="#880000" fill="none" stroke-width="1" display="none" /><path d="M 150 67 L 147 70 L 150 73" fill="none" stroke="#880000" stroke-width="1"  display="none" /></g><g c_partid="part_pin" c_etype="pinpart"  c_show="show"  c_elec="0" c_spicepin="5" c_origin="170,80" id="gge2603" c_rotation="0"><circle c_pindot="true" class="pindot" cx="170" cy="80" r="2" fill="#4F4F4F" stroke="none" /><path d="M 170 80 h -20" fill="none" stroke="#880000" stroke-width="1"/><text x="148" y="83" font-family="Verdana" font-size="7pt" fill="#0000FF" text-anchor="end"   >D3</text><text x="155" y="79" font-family="Verdana" font-size="7pt" fill="#0000FF" text-anchor="start" display="none"  >D3</text><circle cx="153" cy="80" r="3" stroke="#880000" fill="none" stroke-width="1" display="none" /><path d="M 150 77 L 147 80 L 150 83" fill="none" stroke="#880000" stroke-width="1"  display="none" /></g><g c_partid="part_pin" c_etype="pinpart"  c_show="show"  c_elec="0" c_spicepin="6" c_origin="170,90" id="gge2610" c_rotation="0"><circle c_pindot="true" class="pindot" cx="170" cy="90" r="2" fill="#4F4F4F" stroke="none" /><path d="M 170 90 h -20" fill="none" stroke="#880000" stroke-width="1"/><text x="148" y="93" font-family="Verdana" font-size="7pt" fill="#0000FF" text-anchor="end"   >D4</text><text x="155" y="89" font-family="Verdana" font-size="7pt" fill="#0000FF" text-anchor="start" display="none"  >D4</text><circle cx="153" cy="90" r="3" stroke="#880000" fill="none" stroke-width="1" display="none" /><path d="M 150 87 L 147 90 L 150 93" fill="none" stroke="#880000" stroke-width="1"  display="none" /></g><g c_partid="part_pin" c_etype="pinpart"  c_show="show"  c_elec="0" c_spicepin="7" c_origin="170,100" id="gge2617" c_rotation="0"><circle c_pindot="true" class="pindot" cx="170" cy="100" r="2" fill="#4F4F4F" stroke="none" /><path d="M 170 100 h -20" fill="none" stroke="#880000" stroke-width="1"/><text x="148" y="103" font-family="Verdana" font-size="7pt" fill="#0000FF" text-anchor="end"   >GND</text><text x="155" y="99" font-family="Verdana" font-size="7pt" fill="#0000FF" text-anchor="start" display="none"  >GND</text><circle cx="153" cy="100" r="3" stroke="#880000" fill="none" stroke-width="1" display="none" /><path d="M 150 97 L 147 100 L 150 103" fill="none" stroke="#880000" stroke-width="1"  display="none" /></g><g c_partid="part_pin" c_etype="pinpart"  c_show="show"  c_elec="0" c_spicepin="8" c_origin="170,110" id="gge2624" c_rotation="0"><circle c_pindot="true" class="pindot" cx="170" cy="110" r="2" fill="#4F4F4F" stroke="none" /><path d="M 170 110 h -20" fill="none" stroke="#880000" stroke-width="1"/><text x="148" y="113" font-family="Verdana" font-size="7pt" fill="#0000FF" text-anchor="end"   >5V</text><text x="155" y="109" font-family="Verdana" font-size="7pt" fill="#0000FF" text-anchor="start" display="none"  >5V</text><circle cx="153" cy="110" r="3" stroke="#880000" fill="none" stroke-width="1" display="none" /><path d="M 150 107 L 147 110 L 150 113" fill="none" stroke="#880000" stroke-width="1"  display="none" /></g><g c_partid="part_pin" c_etype="pinpart"  c_show="show"  c_elec="0" c_spicepin="9" c_origin="40,110" id="gge2631" c_rotation="180"><circle c_pindot="true" class="pindot" cx="40" cy="110" r="2" fill="#4F4F4F" stroke="none" /><path d="M 40 110 h 20" fill="none" stroke="#880000" stroke-width="1"/><text x="62" y="113" font-family="Verdana" font-size="7pt" fill="#0000FF" text-anchor="start"   >3V3</text><text x="55" y="109" font-family="Verdana" font-size="7pt" fill="#0000FF" text-anchor="end" display="none"  >3V3</text><circle cx="57" cy="110" r="3" stroke="#880000" fill="none" stroke-width="1" display="none" /><path d="M 60 113 L 63 110 L 60 107" fill="none" stroke="#880000" stroke-width="1"  display="none" /></g><g c_partid="part_pin" c_etype="pinpart"  c_show="show"  c_elec="0" c_spicepin="10" c_origin="40,100" id="gge2638" c_rotation="180"><circle c_pindot="true" class="pindot" cx="40" cy="100" r="2" fill="#4F4F4F" stroke="none" /><path d="M 40 100 h 20" fill="none" stroke="#880000" stroke-width="1"/><text x="62" y="103" font-family="Verdana" font-size="7pt" fill="#0000FF" text-anchor="start"   >D8</text><text x="55" y="99" font-family="Verdana" font-size="7pt" fill="#0000FF" text-anchor="end" display="none"  >D8</text><circle cx="57" cy="100" r="3" stroke="#880000" fill="none" stroke-width="1" display="none" /><path d="M 60 103 L 63 100 L 60 97" fill="none" stroke="#880000" stroke-width="1"  display="none" /></g><g c_partid="part_pin" c_etype="pinpart"  c_show="show"  c_elec="0" c_spicepin="11" c_origin="40,90" id="gge2645" c_rotation="180"><circle c_pindot="true" class="pindot" cx="40" cy="90" r="2" fill="#4F4F4F" stroke="none" /><path d="M 40 90 h 20" fill="none" stroke="#880000" stroke-width="1"/><text x="62" y="93" font-family="Verdana" font-size="7pt" fill="#0000FF" text-anchor="start"   >D7</text><text x="55" y="89" font-family="Verdana" font-size="7pt" fill="#0000FF" text-anchor="end" display="none"  >D7</text><circle cx="57" cy="90" r="3" stroke="#880000" fill="none" stroke-width="1" display="none" /><path d="M 60 93 L 63 90 L 60 87" fill="none" stroke="#880000" stroke-width="1"  display="none" /></g><g c_partid="part_pin" c_etype="pinpart"  c_show="show"  c_elec="0" c_spicepin="12" c_origin="40,80" id="gge2652" c_rotation="180"><circle c_pindot="true" class="pindot" cx="40" cy="80" r="2" fill="#4F4F4F" stroke="none" /><path d="M 40 80 h 20" fill="none" stroke="#880000" stroke-width="1"/><text x="62" y="83" font-family="Verdana" font-size="7pt" fill="#0000FF" text-anchor="start"   >D6</text><text x="55" y="79" font-family="Verdana" font-size="7pt" fill="#0000FF" text-anchor="end" display="none"  >D6</text><circle cx="57" cy="80" r="3" stroke="#880000" fill="none" stroke-width="1" display="none" /><path d="M 60 83 L 63 80 L 60 77" fill="none" stroke="#880000" stroke-width="1"  display="none" /></g><g c_partid="part_pin" c_etype="pinpart"  c_show="show"  c_elec="0" c_spicepin="13" c_origin="40,70" id="gge2659" c_rotation="180"><circle c_pindot="true" class="pindot" cx="40" cy="70" r="2" fill="#4F4F4F" stroke="none" /><path d="M 40 70 h 20" fill="none" stroke="#880000" stroke-width="1"/><text x="62" y="73" font-family="Verdana" font-size="7pt" fill="#0000FF" text-anchor="start"   >D5</text><text x="55" y="69" font-family="Verdana" font-size="7pt" fill="#0000FF" text-anchor="end" display="none"  >D5</text><circle cx="57" cy="70" r="3" stroke="#880000" fill="none" stroke-width="1" display="none" /><path d="M 60 73 L 63 70 L 60 67" fill="none" stroke="#880000" stroke-width="1"  display="none" /></g><g c_partid="part_pin" c_etype="pinpart"  c_show="show"  c_elec="0" c_spicepin="14" c_origin="40,60" id="gge2666" c_rotation="180"><circle c_pindot="true" class="pindot" cx="40" cy="60" r="2" fill="#4F4F4F" stroke="none" /><path d="M 40 60 h 20" fill="none" stroke="#880000" stroke-width="1"/><text x="62" y="63" font-family="Verdana" font-size="7pt" fill="#0000FF" text-anchor="start"   >D0</text><text x="55" y="59" font-family="Verdana" font-size="7pt" fill="#0000FF" text-anchor="end" display="none"  >D0</text><circle cx="57" cy="60" r="3" stroke="#880000" fill="none" stroke-width="1" display="none" /><path d="M 60 63 L 63 60 L 60 57" fill="none" stroke="#880000" stroke-width="1"  display="none" /></g><g c_partid="part_pin" c_etype="pinpart"  c_show="show"  c_elec="0" c_spicepin="15" c_origin="40,50" id="gge2673" c_rotation="180"><circle c_pindot="true" class="pindot" cx="40" cy="50" r="2" fill="#4F4F4F" stroke="none" /><path d="M 40 50 h 20" fill="none" stroke="#880000" stroke-width="1"/><text x="62" y="53" font-family="Verdana" font-size="7pt" fill="#0000FF" text-anchor="start"   >A0</text><text x="55" y="49" font-family="Verdana" font-size="7pt" fill="#0000FF" text-anchor="end" display="none"  >A0</text><circle cx="57" cy="50" r="3" stroke="#880000" fill="none" stroke-width="1" display="none" /><path d="M 60 53 L 63 50 L 60 47" fill="none" stroke="#880000" stroke-width="1"  display="none" /></g><g c_partid="part_pin" c_etype="pinpart"  c_show="show"  c_elec="0" c_spicepin="16" c_origin="40,40" id="gge2680" c_rotation="180"><circle c_pindot="true" class="pindot" cx="40" cy="40" r="2" fill="#4F4F4F" stroke="none" /><path d="M 40 40 h 14" fill="none" stroke="#880000" stroke-width="1"/><text x="62" y="43" font-family="Verdana" font-size="7pt" fill="#0000FF" text-anchor="start"   >RST</text><text x="55" y="39" font-family="Verdana" font-size="7pt" fill="#0000FF" text-anchor="end" display="none"  >RST</text><circle cx="57" cy="40" r="3" stroke="#880000" fill="none" stroke-width="1"  /><path d="M 60 43 L 63 40 L 60 37" fill="none" stroke="#880000" stroke-width="1"  display="none" /></g><path d="M 140 10 A 10 10 0 0 1 150 20" id="gge2687"   stroke="#000000" stroke-width="1" c_helper_type="arc1" fill="none" /><polyline points="150 20 150 130" stroke="#000000" id="gge2688" stroke-width="1"   fill="none" stroke-linecap="round" /><polyline points="60 20 60 110" stroke="#000000" id="gge2689" stroke-width="1"   fill="none" stroke-linecap="round" /><path d="M 60 20 A 10 10 0 0 1 70 10" id="gge2690"   stroke="#000000" stroke-width="1" c_helper_type="arc1" fill="none" /><polyline points="70 10 140 10" stroke="#000000" id="gge2691" stroke-width="1"   fill="none" stroke-linecap="round" /><polyline points="60 110 70 120 70 130" stroke="#000000" id="gge2692" stroke-width="1"   fill="none" stroke-linecap="round" /><polyline points="70 130 150 130" stroke="#000000" id="gge2693" stroke-width="1"   fill="none" stroke-linecap="round" /><g c_partid="part_annotation" id="gge2694" c_origin="101.77,51.98" c_shapetype="group" c_etype="pinpart"><text x="101.77" y="51.98" fill="#0000FF" font-family="Verdana" font-size="5.5pt" font-weight="" font-style="" dominant-baseline="" text-anchor="start" type="comment" transform="rotate(90,101.77,51.98)" >Wemos D1 mini</text></g><rect id="gge2698" x="100" y="120"   width="20" height="10" stroke="#000000" stroke-width="1" fill="none"   /><ellipse cx="70" cy="20" rx="5" ry="5" id="gge2699" stroke="#000000" stroke-width="1" fill="none"   /><rect id="gge2700" x="70" y="120"   width="5" height="10" stroke="#000000" stroke-width="1" fill="none"   /><rect id="gge2701" x="100" y="10"   width="40" height="10" stroke="#000000" stroke-width="1" fill="none"   /></g><g c_origin="270,110" c_para="package`TO-92(TO-92-3)`BOM_Supplier`LCSC`BOM_Manufacturer`MAXIM`BOM_Manufacturer Part`DS18B20+`image`//image.lceda.cn/szlcsc/C9753.jpg`BOM_Supplier Part`C9753`spicePre`U`" c_partid="part_import_gge2864" id="gge2864" c_shapetype="group" c_etype="pinpart" ><g c_partid="part_annotation" id="gge2866" ><text c_note="note_name" x="263.03" y="87" fill="#000080" font-family="Arial" font-size="7pt" font-weight="" font-style="" dominant-baseline="" text-anchor="start"  >DS18B20+</text></g><g c_partid="part_annotation" id="gge2868" ><text c_note="note_pre" x="263.03" y="78" fill="#000080" font-family="Arial" font-size="7pt" font-weight="" font-style="" dominant-baseline="" text-anchor="start"  >U2</text></g><rect id="gge2870" x="260" y="90"   width="40" height="40" stroke="#880000" stroke-width="1" fill="none"   /><g c_partid="part_pin" c_etype="pinpart"  c_show="show"  c_elec="0" c_spicepin="1" c_origin="240,100" id="gge2871" c_rotation="180"><circle c_pindot="true" class="pindot" cx="240" cy="100" r="2" fill="#4F4F4F" stroke="none" /><path d="M 240 100 h 20" fill="none" stroke="#880000" stroke-width="1"/><text x="262" y="103" font-family="Verdana" font-size="7pt" fill="#0000FF" text-anchor="start"   >GND</text><text x="255" y="99" font-family="Verdana" font-size="7pt" fill="#0000FF" text-anchor="end"   >1</text><circle cx="257" cy="100" r="3" stroke="#880000" fill="none" stroke-width="1" display="none" /><path d="M 260 103 L 263 100 L 260 97" fill="none" stroke="#880000" stroke-width="1"  display="none" /></g><g c_partid="part_pin" c_etype="pinpart"  c_show="show"  c_elec="0" c_spicepin="2" c_origin="240,110" id="gge2878" c_rotation="180"><circle c_pindot="true" class="pindot" cx="240" cy="110" r="2" fill="#4F4F4F" stroke="none" /><path d="M 240 110 h 20" fill="none" stroke="#880000" stroke-width="1"/><text x="262" y="113" font-family="Verdana" font-size="7pt" fill="#0000FF" text-anchor="start"   >DQ</text><text x="255" y="109" font-family="Verdana" font-size="7pt" fill="#0000FF" text-anchor="end"   >2</text><circle cx="257" cy="110" r="3" stroke="#880000" fill="none" stroke-width="1" display="none" /><path d="M 260 113 L 263 110 L 260 107" fill="none" stroke="#880000" stroke-width="1"  display="none" /></g><g c_partid="part_pin" c_etype="pinpart"  c_show="show"  c_elec="0" c_spicepin="3" c_origin="240,120" id="gge2885" c_rotation="180"><circle c_pindot="true" class="pindot" cx="240" cy="120" r="2" fill="#4F4F4F" stroke="none" /><path d="M 240 120 h 20" fill="none" stroke="#880000" stroke-width="1"/><text x="262" y="123" font-family="Verdana" font-size="7pt" fill="#0000FF" text-anchor="start"   >VDD</text><text x="255" y="119" font-family="Verdana" font-size="7pt" fill="#0000FF" text-anchor="end"   >3</text><circle cx="257" cy="120" r="3" stroke="#880000" fill="none" stroke-width="1" display="none" /><path d="M 260 123 L 263 120 L 260 117" fill="none" stroke="#880000" stroke-width="1"  display="none" /></g></g><g c_origin="195,80" c_para="package`AXIAL-0.3`nameAlias`Value(&#x3a9;)`BOM_Manufacturer Part``spicePre`R`spiceSymbolName`Res_AXIAL-0.3(1/8W)_EU`" c_partid="part_import_gge3069" id="gge3069" c_shapetype="group" c_etype="pinpart" c_rotation="270"><g c_partid="part_annotation" id="gge3071" ><text c_note="note_name" x="202" y="92.2" fill="#000080" font-family="Arial" font-size="7pt" font-weight="" font-style="" dominant-baseline="" text-anchor="start"  >10k</text></g><g c_partid="part_annotation" id="gge3073" ><text c_note="note_pre" x="202" y="83.2" fill="#000080" font-family="Arial" font-size="7pt" font-weight="" font-style="" dominant-baseline="" text-anchor="start"  >R1</text></g><rect id="gge3075" x="190" y="70"   width="10" height="20" stroke="#A00000" stroke-width="1" fill="none"   /><g c_partid="part_pin" c_etype="pinpart"  c_show="show"  c_elec="0" c_spicepin="2" c_origin="195,100" id="gge3076" c_rotation="270"><circle c_pindot="true" class="pindot" cx="195" cy="100" r="2" fill="#4F4F4F" stroke="none" /><path d="M 195 90 v 10" fill="none" stroke="#800" stroke-width="1"/><text x="195" y="86" font-family="Verdana" font-size="7pt" fill="#800" text-anchor="start" display="none" transform="rotate(270,195,86)" >2</text><text x="191" y="94" font-family="Verdana" font-size="7pt" fill="#800" text-anchor="end" display="none" transform="rotate(270,191,94)" >2</text><circle cx="195" cy="113" r="3" stroke="#800" fill="none" stroke-width="1" display="none" /><path d="M 198 110 L 195 107 L 192 110" fill="none" stroke="#800" stroke-width="1"  display="none" /></g><g c_partid="part_pin" c_etype="pinpart"  c_show="show"  c_elec="0" c_spicepin="1" c_origin="195,60" id="gge3083" c_rotation="90"><circle c_pindot="true" class="pindot" cx="195" cy="60" r="2" fill="#4F4F4F" stroke="none" /><path d="M 195 70 v -10" fill="none" stroke="#800" stroke-width="1"/><text x="195" y="74" font-family="Verdana" font-size="7pt" fill="#800" text-anchor="end" display="none" transform="rotate(270,195,74)" >1</text><text x="191" y="66" font-family="Verdana" font-size="7pt" fill="#800" text-anchor="start" display="none" transform="rotate(270,191,66)" >1</text><circle cx="195" cy="47" r="3" stroke="#800" fill="none" stroke-width="1" display="none" /><path d="M 192 50 L 195 53 L 198 50" fill="none" stroke="#800" stroke-width="1"  display="none" /></g></g><polyline c_etype="wire" c_shapetype="line" points="170 100 240 100" stroke="#008800" id="gge3113" stroke-width="1"   fill="none" stroke-linecap="round" /><polyline c_etype="wire" c_shapetype="line" points="240 120 180 120 180 140 40 140 40 110" stroke="#008800" id="gge3115" stroke-width="1"   fill="none" stroke-linecap="round" /><polyline c_etype="wire" c_shapetype="line" points="240 110 225 110 225 60 195 60 180 60 180 80 170 80" stroke="#008800" id="gge3127" stroke-width="1"   fill="none" stroke-linecap="round" /><g c_partid="part_junction" c_etype="pinpart" c_origin="195,100" id="gge3114" c_shapetype="group"><circle c_pindot="true" class="pindot" cx="195" cy="100" r="2" fill="#4F4F4F" stroke="none"/><circle cx="195" cy="100" r="2.5" fill="#CC0000" stroke-width="1"/></g><g c_partid="part_junction" c_etype="pinpart" c_origin="195,60" id="gge3137" c_shapetype="group"><circle c_pindot="true" class="pindot" cx="195" cy="60" r="2" fill="#4F4F4F" stroke="none"/><circle cx="195" cy="60" r="2.5" fill="#CC0000" stroke-width="1"/></g></g></svg>